<svg width="1448" height="104" viewBox="0 0 1448 104" fill="none" xmlns="http://www.w3.org/2000/svg">
<g filter="url(#filter0_d_25368_780)">
<rect width="1440" height="96" transform="translate(4 2)" fill="white"/>
<path d="M36.8856 56.9283L36.0335 57.7417C35.6727 58.0861 35.0892 58.0861 34.7323 57.7417L27.2706 50.6229C26.9098 50.2785 26.9098 49.7215 27.2706 49.3808L34.7323 42.2583C35.0931 41.9139 35.6765 41.9139 36.0335 42.2583L36.8856 43.0717C37.2502 43.4197 37.2425 43.9876 36.8702 44.3284L32.2451 48.5345H43.2764C43.7869 48.5345 44.1976 48.9265 44.1976 49.4138V50.5862C44.1976 51.0735 43.7869 51.4655 43.2764 51.4655H32.2451L36.8702 55.6716C37.2464 56.0124 37.254 56.5803 36.8856 56.9283Z" fill="#353535"/>
<path d="M636.88 39.7314C640.218 39.7314 642.672 40.4064 644.243 41.7563C645.838 43.1062 646.636 44.8734 646.636 47.0578C646.636 47.7941 646.538 48.6164 646.341 49.5245C645.875 51.5371 645.004 53.3043 643.727 54.826C642.451 56.3232 640.88 57.489 639.015 58.3235C637.174 59.1335 635.174 59.5385 633.014 59.5385C629.602 59.5385 627.074 58.8635 625.43 57.5136C623.81 56.1391 623 54.3229 623 52.0648C623 51.3039 623.098 50.4572 623.295 49.5245C623.761 47.61 624.644 45.9165 625.945 44.4439C627.271 42.9467 628.878 41.7931 630.768 40.9831C632.683 40.1486 634.72 39.7314 636.88 39.7314ZM636.769 43.008C636.254 43.008 635.702 43.4744 635.113 44.407C634.548 45.3152 633.873 47.0455 633.088 49.5981C632.302 52.1507 631.91 53.9424 631.91 54.9733C631.91 55.5132 631.995 55.8814 632.167 56.0778C632.339 56.2496 632.572 56.3355 632.867 56.3355C633.382 56.3846 633.91 55.9428 634.45 55.0101C635.014 54.0774 635.714 52.2612 636.548 49.5613C637.309 47.1805 637.69 45.4502 637.69 44.3702C637.69 43.8548 637.604 43.4989 637.432 43.3026C637.285 43.1062 637.064 43.008 636.769 43.008Z" fill="#101010"/>
<path d="M668.642 54.1265C668.593 54.2247 668.568 54.3719 668.568 54.5683C668.568 54.7401 668.605 54.8751 668.678 54.9733C668.777 55.0715 668.899 55.1205 669.047 55.1205C669.341 55.1205 669.587 54.9978 669.783 54.7524C670.004 54.4824 670.151 54.3474 670.225 54.3474C670.347 54.3474 670.446 54.4333 670.519 54.6051C670.593 54.7524 670.63 54.9365 670.63 55.1574C670.654 55.8691 670.421 56.5686 669.93 57.2559C669.439 57.9186 668.715 58.4708 667.758 58.9126C666.825 59.3299 665.696 59.5385 664.371 59.5385C662.751 59.5385 661.463 59.1703 660.505 58.434C659.548 57.6731 659.057 56.6668 659.033 55.4151C659.033 54.5069 659.254 53.4884 659.695 52.3593L661.72 47.0578C661.843 46.7387 661.904 46.481 661.904 46.2847C661.904 45.9656 661.794 45.7202 661.573 45.5483C661.377 45.352 661.131 45.2538 660.837 45.2538C660.37 45.2538 659.892 45.4747 659.401 45.9165C658.934 46.3338 658.554 47.021 658.26 47.9782V47.9046L655.94 55.3783C655.866 55.6728 655.83 55.9305 655.83 56.1514C655.83 56.4705 655.891 56.7282 656.014 56.9245C656.136 57.0963 656.308 57.2682 656.529 57.44C656.701 57.6118 656.824 57.759 656.897 57.8818C656.971 57.9799 656.983 58.1149 656.934 58.2867C656.811 58.6058 656.566 58.839 656.198 58.9862C655.83 59.1335 655.265 59.2071 654.504 59.2071H646.11C645.472 59.2071 645.006 59.109 644.711 58.9126C644.417 58.6917 644.318 58.4095 644.417 58.0658C644.515 57.7713 644.773 57.5136 645.19 57.2927C645.558 57.0963 645.865 56.8632 646.11 56.5932C646.356 56.3232 646.564 55.8937 646.736 55.3046L652.332 36.9334C652.406 36.7125 652.443 36.5284 652.443 36.3811C652.443 36.1111 652.369 35.8902 652.222 35.7184C652.099 35.5466 651.927 35.3748 651.706 35.203C651.461 35.0067 651.277 34.8348 651.154 34.6876C651.056 34.5403 651.044 34.344 651.117 34.0985C651.264 33.534 652.038 33.0431 653.437 32.6259C654.836 32.2086 656.296 32 657.818 32C659.241 32 660.284 32.27 660.947 32.81C661.634 33.3499 661.978 34.0862 661.978 35.0189C661.978 35.5589 661.892 36.0866 661.72 36.602L659.732 43.0817C660.689 41.8299 661.696 40.9586 662.751 40.4677C663.831 39.9768 664.997 39.7314 666.249 39.7314C667.746 39.7314 668.948 40.1855 669.857 41.0936C670.789 42.0017 671.256 43.1798 671.256 44.6279C671.256 45.3888 671.133 46.1374 670.887 46.8737L668.642 54.1265Z" fill="#101010"/>
<path d="M707.224 54.1265C707.174 54.2247 707.15 54.3719 707.15 54.5683C707.15 54.7401 707.187 54.8751 707.26 54.9733C707.359 55.0715 707.481 55.1205 707.629 55.1205C707.923 55.1205 708.169 54.9978 708.365 54.7524C708.586 54.4824 708.733 54.3474 708.807 54.3474C708.929 54.3474 709.028 54.4333 709.101 54.6051C709.175 54.7524 709.212 54.9365 709.212 55.1574C709.236 55.8691 709.003 56.5686 708.512 57.2559C708.021 57.9186 707.297 58.4708 706.34 58.9126C705.407 59.3299 704.278 59.5385 702.953 59.5385C701.333 59.5385 700.044 59.1703 699.087 58.434C698.13 57.6731 697.639 56.6668 697.615 55.4151C697.615 54.5069 697.835 53.4884 698.277 52.3593L700.302 47.0578C700.425 46.7387 700.486 46.481 700.486 46.2847C700.486 45.9656 700.376 45.7202 700.155 45.5483C699.959 45.352 699.713 45.2538 699.419 45.2538C699.001 45.2538 698.572 45.4379 698.13 45.8061C697.688 46.1742 697.295 46.751 696.952 47.5364L694.927 54.1265C694.878 54.2247 694.853 54.3719 694.853 54.5683C694.853 54.7401 694.89 54.8751 694.964 54.9733C695.062 55.0715 695.185 55.1205 695.332 55.1205C695.626 55.1205 695.872 54.9978 696.068 54.7524C696.289 54.4824 696.436 54.3474 696.51 54.3474C696.633 54.3474 696.731 54.4333 696.805 54.6051C696.878 54.7524 696.915 54.9365 696.915 55.1574C696.94 55.8691 696.706 56.5686 696.216 57.2559C695.725 57.9186 695.001 58.4708 694.043 58.9126C693.111 59.3299 691.982 59.5385 690.656 59.5385C689.036 59.5385 687.748 59.1703 686.791 58.434C685.833 57.6731 685.342 56.6668 685.318 55.4151C685.318 54.5069 685.539 53.4884 685.981 52.3593L688.006 47.0578C688.128 46.7387 688.19 46.481 688.19 46.2847C688.19 45.9656 688.079 45.7202 687.858 45.5483C687.662 45.352 687.416 45.2538 687.122 45.2538C686.705 45.2538 686.275 45.4379 685.833 45.8061C685.392 46.1497 685.023 46.7142 684.729 47.4996L682.299 55.3783C682.201 55.6482 682.152 55.906 682.152 56.1514C682.152 56.4459 682.213 56.6914 682.336 56.8877C682.459 57.0595 682.63 57.2436 682.851 57.44C683.023 57.5872 683.146 57.7222 683.219 57.8449C683.293 57.9677 683.305 58.1149 683.256 58.2867C683.158 58.6058 682.925 58.839 682.557 58.9862C682.189 59.1335 681.612 59.2071 680.826 59.2071H672.432C671.794 59.2071 671.34 59.109 671.07 58.9126C670.776 58.6917 670.665 58.4095 670.739 58.0658C670.837 57.7713 671.095 57.5136 671.512 57.2927C671.88 57.0963 672.187 56.8632 672.432 56.5932C672.678 56.3232 672.886 55.8937 673.058 55.3046L676.335 44.6648C676.384 44.542 676.408 44.3702 676.408 44.1493C676.408 43.8793 676.347 43.6707 676.224 43.5235C676.126 43.3762 675.954 43.1921 675.709 42.9712C675.463 42.7749 675.292 42.6031 675.194 42.4558C675.095 42.3085 675.083 42.1122 675.157 41.8667C675.304 41.3022 676.077 40.8113 677.476 40.3941C678.875 39.9523 680.335 39.7314 681.857 39.7314C683.06 39.7314 684.005 40.0627 684.692 40.7254C685.404 41.3881 685.747 42.2962 685.723 43.4498C686.729 42.0508 687.785 41.0813 688.889 40.5413C690.018 40.0014 691.233 39.7314 692.534 39.7314C693.957 39.7314 695.111 40.1486 695.995 40.9831C696.903 41.7931 697.406 42.8608 697.504 44.1861C698.559 42.5171 699.689 41.3636 700.891 40.7254C702.094 40.0627 703.407 39.7314 704.831 39.7314C706.328 39.7314 707.53 40.1855 708.438 41.0936C709.371 42.0017 709.838 43.1798 709.838 44.6279C709.838 45.3888 709.715 46.1374 709.469 46.8737L707.224 54.1265Z" fill="#101010"/>
<path d="M729.942 39.7314C731.022 39.7314 731.881 40.1732 732.519 41.0568C733.182 41.9158 733.513 43.0939 733.513 44.5911C733.513 45.892 733.28 47.291 732.814 48.7882C731.906 51.8071 730.445 54.6542 728.433 57.3295C726.445 60.0048 724.15 62.1524 721.548 63.7723C718.971 65.3923 716.394 66.2022 713.817 66.2022C712.541 66.2022 711.436 65.9813 710.503 65.5395C709.595 65.0977 708.908 64.5087 708.442 63.7723C707.951 63.036 707.705 62.2506 707.705 61.4161C707.705 61.0479 707.767 60.643 707.889 60.2012C708.11 59.5139 708.478 58.9862 708.994 58.6181C709.509 58.2499 710.123 58.0658 710.835 58.0658C711.964 58.0658 712.884 58.4463 713.596 59.2071C714.332 59.9925 714.799 61.0602 714.995 62.4101C716.566 62.3365 718.014 61.6615 719.339 60.3853C718.087 60.1644 717.155 59.7471 716.541 59.1335C715.952 58.4954 715.547 57.5136 715.326 56.1882L713.854 47.1683C713.78 46.7019 713.67 46.3828 713.522 46.211C713.4 46.0147 713.228 45.9165 713.007 45.9165C712.835 45.9165 712.626 46.0024 712.381 46.1742C712.16 46.346 712.001 46.4319 711.902 46.4319C711.706 46.4319 711.608 46.2233 711.608 45.8061C711.608 45.4624 711.669 45.0943 711.792 44.7016C712.234 43.3026 713.056 42.1244 714.259 41.1672C715.461 40.1855 716.86 39.6946 718.456 39.6946C720.026 39.6946 721.18 40.1609 721.916 41.0936C722.677 42.0263 723.168 43.4621 723.389 45.4011L724.493 53.5006C724.567 54.1142 724.788 54.421 725.156 54.421C725.598 54.421 726.113 54.0283 726.702 53.2429C727.292 52.433 727.868 51.2917 728.433 49.819C727.697 49.1563 727.132 48.3955 726.739 47.5364C726.347 46.6774 726.15 45.757 726.15 44.7752C726.15 44.0143 726.248 43.3271 726.445 42.7135C726.739 41.7317 727.193 40.9954 727.807 40.5045C728.445 39.9891 729.157 39.7314 729.942 39.7314Z" fill="#101010"/>
<path d="M748.281 32C750.907 32 752.871 32.405 754.172 33.2149C755.497 34.0003 756.16 34.9698 756.16 36.1234C756.16 37.0561 755.767 37.7801 754.982 38.2956C754.221 38.7864 753.214 39.0319 751.963 39.0319C750.809 39.0319 749.913 38.7496 749.275 38.1851C748.637 37.6206 748.318 36.9211 748.318 36.0866C748.318 35.5712 748.477 35.0312 748.796 34.4667C748.06 34.4667 747.447 34.6508 746.956 35.0189C746.465 35.3625 746.084 35.9639 745.814 36.8229C745.667 37.3629 745.593 37.866 745.593 38.3324C745.593 38.9214 745.692 39.3878 745.888 39.7314C746.109 40.0505 746.416 40.21 746.808 40.21H748.981C750.257 40.21 750.895 40.6027 750.895 41.3881C750.895 41.4863 750.87 41.6336 750.821 41.8299C750.674 42.3699 750.367 42.7749 749.901 43.0448C749.459 43.3148 748.784 43.4498 747.876 43.4498H746.772L743.127 55.3783C743.053 55.6728 743.016 55.9305 743.016 56.1514C743.016 56.4705 743.078 56.7282 743.2 56.9245C743.323 57.0963 743.495 57.2682 743.716 57.44C743.888 57.6118 744.01 57.759 744.084 57.8818C744.158 57.9799 744.17 58.1149 744.121 58.2867C743.998 58.6058 743.753 58.839 743.384 58.9862C743.016 59.1335 742.452 59.2071 741.691 59.2071H733.297C732.659 59.2071 732.192 59.109 731.898 58.9126C731.603 58.6917 731.505 58.4095 731.603 58.0658C731.702 57.7713 731.959 57.5136 732.376 57.2927C732.745 57.0963 733.051 56.8632 733.297 56.5932C733.542 56.3232 733.751 55.8937 733.923 55.3046L736.794 45.8797C736.917 45.5115 736.978 45.1311 736.978 44.7384C736.978 44.2475 736.868 43.8671 736.647 43.5971C736.451 43.3026 736.144 42.9835 735.727 42.6399C735.457 42.419 735.248 42.2349 735.101 42.0876C734.978 41.9158 734.917 41.7195 734.917 41.4986C734.892 41.0322 735.052 40.7009 735.395 40.5045C735.764 40.3082 736.451 40.21 737.457 40.21H738.378C738.206 39.5964 738.12 38.9828 738.12 38.3692C738.12 37.7556 738.23 37.1174 738.451 36.4548C738.917 35.203 739.912 34.1476 741.433 33.2886C742.98 32.4295 745.262 32 748.281 32Z" fill="#101010"/>
<path d="M762.824 39.7314C766.162 39.7314 768.616 40.4064 770.187 41.7563C771.783 43.1062 772.58 44.8734 772.58 47.0578C772.58 47.7941 772.482 48.6164 772.286 49.5245C771.819 51.5371 770.948 53.3043 769.672 54.826C768.396 56.3232 766.825 57.489 764.959 58.3235C763.119 59.1335 761.118 59.5385 758.958 59.5385C755.547 59.5385 753.019 58.8635 751.374 57.5136C749.754 56.1391 748.944 54.3229 748.944 52.0648C748.944 51.3039 749.042 50.4572 749.239 49.5245C749.705 47.61 750.589 45.9165 751.89 44.4439C753.215 42.9467 754.823 41.7931 756.713 40.9831C758.627 40.1486 760.664 39.7314 762.824 39.7314ZM762.714 43.008C762.198 43.008 761.646 43.4744 761.057 44.407C760.492 45.3152 759.817 47.0455 759.032 49.5981C758.247 52.1507 757.854 53.9424 757.854 54.9733C757.854 55.5132 757.94 55.8814 758.112 56.0778C758.283 56.2496 758.517 56.3355 758.811 56.3355C759.326 56.3846 759.854 55.9428 760.394 55.0101C760.959 54.0774 761.658 52.2612 762.493 49.5613C763.254 47.1805 763.634 45.4502 763.634 44.3702C763.634 43.8548 763.548 43.4989 763.376 43.3026C763.229 43.1062 763.008 43.008 762.714 43.008Z" fill="#101010"/>
<path d="M786.985 39.7314C790.323 39.7314 792.777 40.4064 794.348 41.7563C795.943 43.1062 796.741 44.8734 796.741 47.0578C796.741 47.7941 796.643 48.6164 796.446 49.5245C795.98 51.5371 795.109 53.3043 793.832 54.826C792.556 56.3232 790.985 57.489 789.12 58.3235C787.279 59.1335 785.279 59.5385 783.119 59.5385C779.707 59.5385 777.179 58.8635 775.535 57.5136C773.915 56.1391 773.105 54.3229 773.105 52.0648C773.105 51.3039 773.203 50.4572 773.399 49.5245C773.866 47.61 774.749 45.9165 776.05 44.4439C777.376 42.9467 778.983 41.7931 780.873 40.9831C782.788 40.1486 784.825 39.7314 786.985 39.7314ZM786.874 43.008C786.359 43.008 785.806 43.4744 785.217 44.407C784.653 45.3152 783.978 47.0455 783.193 49.5981C782.407 52.1507 782.014 53.9424 782.014 54.9733C782.014 55.5132 782.1 55.8814 782.272 56.0778C782.444 56.2496 782.677 56.3355 782.972 56.3355C783.487 56.3846 784.015 55.9428 784.555 55.0101C785.119 54.0774 785.819 52.2612 786.653 49.5613C787.414 47.1805 787.795 45.4502 787.795 44.3702C787.795 43.8548 787.709 43.4989 787.537 43.3026C787.39 43.1062 787.169 43.008 786.874 43.008Z" fill="#101010"/>
<path d="M817.478 53.9056C817.428 54.102 817.404 54.237 817.404 54.3106C817.404 54.4824 817.453 54.6174 817.551 54.7156C817.649 54.8137 817.772 54.8628 817.919 54.8628C818.214 54.8628 818.459 54.7401 818.656 54.4947C818.877 54.2247 819.024 54.0897 819.098 54.0897C819.22 54.0897 819.318 54.1756 819.392 54.3474C819.466 54.5192 819.502 54.7156 819.502 54.9365C819.527 55.5992 819.269 56.2741 818.729 56.9614C818.214 57.6486 817.514 58.2131 816.631 58.6549C815.747 59.0967 814.79 59.3176 813.759 59.3176C812.532 59.3176 811.464 59.0844 810.556 58.6181C809.648 58.1517 809.022 57.5381 808.679 56.7773C808.016 57.6363 807.255 58.2745 806.396 58.6917C805.537 59.109 804.629 59.3176 803.672 59.3176C802.542 59.3176 801.487 59.0353 800.505 58.4708C799.548 57.9063 798.775 57.1086 798.186 56.0778C797.621 55.0224 797.339 53.832 797.339 52.5066C797.339 50.2731 797.756 48.1746 798.591 46.211C799.45 44.223 800.64 42.6276 802.162 41.4249C803.684 40.1977 805.414 39.5841 807.353 39.5841C808.409 39.5841 809.304 39.7068 810.041 39.9523C810.802 40.1977 811.489 40.5659 812.102 41.0568L813.354 36.9334C813.428 36.7125 813.465 36.5284 813.465 36.3811C813.465 36.1111 813.391 35.8902 813.244 35.7184C813.121 35.5466 812.949 35.3748 812.728 35.203C812.483 35.0067 812.299 34.8348 812.176 34.6876C812.078 34.5403 812.066 34.344 812.139 34.0985C812.287 33.534 813.06 33.0431 814.459 32.6259C815.858 32.2086 817.318 32 818.84 32C820.263 32 821.306 32.27 821.969 32.81C822.656 33.3499 823 34.0862 823 35.0189C823 35.5589 822.914 36.0866 822.742 36.602L817.478 53.9056ZM811.329 43.5603C810.937 43.2167 810.507 43.0448 810.041 43.0448C809.329 43.0448 808.629 43.5725 807.942 44.6279C807.255 45.6833 806.703 46.9596 806.285 48.4568C805.868 49.954 805.672 51.3039 805.696 52.5066C805.696 53.8565 806.138 54.5315 807.022 54.5315C807.341 54.5315 807.611 54.4088 807.832 54.1633C808.053 53.8933 808.261 53.4638 808.458 52.8748L811.329 43.5603Z" fill="#101010"/>
</g>
<defs>
<filter id="filter0_d_25368_780" x="0" y="0" width="1448" height="104" filterUnits="userSpaceOnUse" color-interpolation-filters="sRGB">
<feFlood flood-opacity="0" result="BackgroundImageFix"/>
<feColorMatrix in="SourceAlpha" type="matrix" values="0 0 0 0 0 0 0 0 0 0 0 0 0 0 0 0 0 0 127 0" result="hardAlpha"/>
<feOffset dy="2"/>
<feGaussianBlur stdDeviation="2"/>
<feColorMatrix type="matrix" values="0 0 0 0 0 0 0 0 0 0 0 0 0 0 0 0 0 0 0.15 0"/>
<feBlend mode="normal" in2="BackgroundImageFix" result="effect1_dropShadow_25368_780"/>
<feBlend mode="normal" in="SourceGraphic" in2="effect1_dropShadow_25368_780" result="shape"/>
</filter>
</defs>
</svg>
