<svg width="384" height="71" viewBox="0 0 384 71" fill="none" xmlns="http://www.w3.org/2000/svg">
<g filter="url(#filter0_d_25368_777)">
<rect width="375" height="63" transform="translate(4.5 2)" fill="white"/>
<path d="M121.28 31.13C124 31.13 126 31.68 127.28 32.78C128.58 33.88 129.23 35.32 129.23 37.1C129.23 37.7 129.15 38.37 128.99 39.11C128.61 40.75 127.9 42.19 126.86 43.43C125.82 44.65 124.54 45.6 123.02 46.28C121.52 46.94 119.89 47.27 118.13 47.27C115.35 47.27 113.29 46.72 111.95 45.62C110.63 44.5 109.97 43.02 109.97 41.18C109.97 40.56 110.05 39.87 110.21 39.11C110.59 37.55 111.31 36.17 112.37 34.97C113.45 33.75 114.76 32.81 116.3 32.15C117.86 31.47 119.52 31.13 121.28 31.13ZM121.19 33.8C120.77 33.8 120.32 34.18 119.84 34.94C119.38 35.68 118.83 37.09 118.19 39.17C117.55 41.25 117.23 42.71 117.23 43.55C117.23 43.99 117.3 44.29 117.44 44.45C117.58 44.59 117.77 44.66 118.01 44.66C118.43 44.7 118.86 44.34 119.3 43.58C119.76 42.82 120.33 41.34 121.01 39.14C121.63 37.2 121.94 35.79 121.94 34.91C121.94 34.49 121.87 34.2 121.73 34.04C121.61 33.88 121.43 33.8 121.19 33.8ZM147.161 42.86C147.121 42.94 147.101 43.06 147.101 43.22C147.101 43.36 147.131 43.47 147.191 43.55C147.271 43.63 147.371 43.67 147.491 43.67C147.731 43.67 147.931 43.57 148.091 43.37C148.271 43.15 148.391 43.04 148.451 43.04C148.551 43.04 148.631 43.11 148.691 43.25C148.751 43.37 148.781 43.52 148.781 43.7C148.801 44.28 148.611 44.85 148.211 45.41C147.811 45.95 147.221 46.4 146.441 46.76C145.681 47.1 144.761 47.27 143.681 47.27C142.361 47.27 141.311 46.97 140.531 46.37C139.751 45.75 139.351 44.93 139.331 43.91C139.331 43.17 139.511 42.34 139.871 41.42L141.521 37.1C141.621 36.84 141.671 36.63 141.671 36.47C141.671 36.21 141.581 36.01 141.401 35.87C141.241 35.71 141.041 35.63 140.801 35.63C140.421 35.63 140.031 35.81 139.631 36.17C139.251 36.51 138.941 37.07 138.701 37.85V37.79L136.811 43.88C136.751 44.12 136.721 44.33 136.721 44.51C136.721 44.77 136.771 44.98 136.871 45.14C136.971 45.28 137.111 45.42 137.291 45.56C137.431 45.7 137.531 45.82 137.591 45.92C137.651 46 137.661 46.11 137.621 46.25C137.521 46.51 137.321 46.7 137.021 46.82C136.721 46.94 136.261 47 135.641 47H128.801C128.281 47 127.901 46.92 127.661 46.76C127.421 46.58 127.341 46.35 127.421 46.07C127.501 45.83 127.711 45.62 128.051 45.44C128.351 45.28 128.601 45.09 128.801 44.87C129.001 44.65 129.171 44.3 129.311 43.82L133.871 28.85C133.931 28.67 133.961 28.52 133.961 28.4C133.961 28.18 133.901 28 133.781 27.86C133.681 27.72 133.541 27.58 133.361 27.44C133.161 27.28 133.011 27.14 132.911 27.02C132.831 26.9 132.821 26.74 132.881 26.54C133.001 26.08 133.631 25.68 134.771 25.34C135.911 25 137.101 24.83 138.341 24.83C139.501 24.83 140.351 25.05 140.891 25.49C141.451 25.93 141.731 26.53 141.731 27.29C141.731 27.73 141.661 28.16 141.521 28.58L139.901 33.86C140.681 32.84 141.501 32.13 142.361 31.73C143.241 31.33 144.191 31.13 145.211 31.13C146.431 31.13 147.411 31.5 148.151 32.24C148.911 32.98 149.291 33.94 149.291 35.12C149.291 35.74 149.191 36.35 148.991 36.95L147.161 42.86ZM178.6 42.86C178.56 42.94 178.54 43.06 178.54 43.22C178.54 43.36 178.57 43.47 178.63 43.55C178.71 43.63 178.81 43.67 178.93 43.67C179.17 43.67 179.37 43.57 179.53 43.37C179.71 43.15 179.83 43.04 179.89 43.04C179.99 43.04 180.07 43.11 180.13 43.25C180.19 43.37 180.22 43.52 180.22 43.7C180.24 44.28 180.05 44.85 179.65 45.41C179.25 45.95 178.66 46.4 177.88 46.76C177.12 47.1 176.2 47.27 175.12 47.27C173.8 47.27 172.75 46.97 171.97 46.37C171.19 45.75 170.79 44.93 170.77 43.91C170.77 43.17 170.95 42.34 171.31 41.42L172.96 37.1C173.06 36.84 173.11 36.63 173.11 36.47C173.11 36.21 173.02 36.01 172.84 35.87C172.68 35.71 172.48 35.63 172.24 35.63C171.9 35.63 171.55 35.78 171.19 36.08C170.83 36.38 170.51 36.85 170.23 37.49L168.58 42.86C168.54 42.94 168.52 43.06 168.52 43.22C168.52 43.36 168.55 43.47 168.61 43.55C168.69 43.63 168.79 43.67 168.91 43.67C169.15 43.67 169.35 43.57 169.51 43.37C169.69 43.15 169.81 43.04 169.87 43.04C169.97 43.04 170.05 43.11 170.11 43.25C170.17 43.37 170.2 43.52 170.2 43.7C170.22 44.28 170.03 44.85 169.63 45.41C169.23 45.95 168.64 46.4 167.86 46.76C167.1 47.1 166.18 47.27 165.1 47.27C163.78 47.27 162.73 46.97 161.95 46.37C161.17 45.75 160.77 44.93 160.75 43.91C160.75 43.17 160.93 42.34 161.29 41.42L162.94 37.1C163.04 36.84 163.09 36.63 163.09 36.47C163.09 36.21 163 36.01 162.82 35.87C162.66 35.71 162.46 35.63 162.22 35.63C161.88 35.63 161.53 35.78 161.17 36.08C160.81 36.36 160.51 36.82 160.27 37.46L158.29 43.88C158.21 44.1 158.17 44.31 158.17 44.51C158.17 44.75 158.22 44.95 158.32 45.11C158.42 45.25 158.56 45.4 158.74 45.56C158.88 45.68 158.98 45.79 159.04 45.89C159.1 45.99 159.11 46.11 159.07 46.25C158.99 46.51 158.8 46.7 158.5 46.82C158.2 46.94 157.73 47 157.09 47H150.25C149.73 47 149.36 46.92 149.14 46.76C148.9 46.58 148.81 46.35 148.87 46.07C148.95 45.83 149.16 45.62 149.5 45.44C149.8 45.28 150.05 45.09 150.25 44.87C150.45 44.65 150.62 44.3 150.76 43.82L153.43 35.15C153.47 35.05 153.49 34.91 153.49 34.73C153.49 34.51 153.44 34.34 153.34 34.22C153.26 34.1 153.12 33.95 152.92 33.77C152.72 33.61 152.58 33.47 152.5 33.35C152.42 33.23 152.41 33.07 152.47 32.87C152.59 32.41 153.22 32.01 154.36 31.67C155.5 31.31 156.69 31.13 157.93 31.13C158.91 31.13 159.68 31.4 160.24 31.94C160.82 32.48 161.1 33.22 161.08 34.16C161.9 33.02 162.76 32.23 163.66 31.79C164.58 31.35 165.57 31.13 166.63 31.13C167.79 31.13 168.73 31.47 169.45 32.15C170.19 32.81 170.6 33.68 170.68 34.76C171.54 33.4 172.46 32.46 173.44 31.94C174.42 31.4 175.49 31.13 176.65 31.13C177.87 31.13 178.85 31.5 179.59 32.24C180.35 32.98 180.73 33.94 180.73 35.12C180.73 35.74 180.63 36.35 180.43 36.95L178.6 42.86ZM197.113 31.13C197.993 31.13 198.693 31.49 199.213 32.21C199.753 32.91 200.023 33.87 200.023 35.09C200.023 36.15 199.833 37.29 199.453 38.51C198.713 40.97 197.523 43.29 195.883 45.47C194.263 47.65 192.393 49.4 190.273 50.72C188.173 52.04 186.073 52.7 183.973 52.7C182.933 52.7 182.033 52.52 181.273 52.16C180.533 51.8 179.973 51.32 179.593 50.72C179.193 50.12 178.993 49.48 178.993 48.8C178.993 48.5 179.043 48.17 179.143 47.81C179.323 47.25 179.623 46.82 180.043 46.52C180.463 46.22 180.963 46.07 181.543 46.07C182.463 46.07 183.213 46.38 183.793 47C184.393 47.64 184.773 48.51 184.933 49.61C186.213 49.55 187.393 49 188.473 47.96C187.453 47.78 186.693 47.44 186.193 46.94C185.713 46.42 185.383 45.62 185.203 44.54L184.003 37.19C183.943 36.81 183.853 36.55 183.733 36.41C183.633 36.25 183.493 36.17 183.313 36.17C183.173 36.17 183.003 36.24 182.803 36.38C182.623 36.52 182.493 36.59 182.413 36.59C182.253 36.59 182.173 36.42 182.173 36.08C182.173 35.8 182.223 35.5 182.323 35.18C182.683 34.04 183.353 33.08 184.333 32.3C185.313 31.5 186.453 31.1 187.753 31.1C189.033 31.1 189.973 31.48 190.573 32.24C191.193 33 191.593 34.17 191.773 35.75L192.673 42.35C192.733 42.85 192.913 43.1 193.213 43.1C193.573 43.1 193.993 42.78 194.473 42.14C194.953 41.48 195.423 40.55 195.883 39.35C195.283 38.81 194.823 38.19 194.503 37.49C194.183 36.79 194.023 36.04 194.023 35.24C194.023 34.62 194.103 34.06 194.263 33.56C194.503 32.76 194.873 32.16 195.373 31.76C195.893 31.34 196.473 31.13 197.113 31.13ZM212.056 24.83C214.196 24.83 215.796 25.16 216.856 25.82C217.936 26.46 218.476 27.25 218.476 28.19C218.476 28.95 218.156 29.54 217.516 29.96C216.896 30.36 216.076 30.56 215.056 30.56C214.116 30.56 213.386 30.33 212.866 29.87C212.346 29.41 212.086 28.84 212.086 28.16C212.086 27.74 212.216 27.3 212.476 26.84C211.876 26.84 211.376 26.99 210.976 27.29C210.576 27.57 210.266 28.06 210.046 28.76C209.926 29.2 209.866 29.61 209.866 29.99C209.866 30.47 209.946 30.85 210.106 31.13C210.286 31.39 210.536 31.52 210.856 31.52H212.626C213.666 31.52 214.186 31.84 214.186 32.48C214.186 32.56 214.166 32.68 214.126 32.84C214.006 33.28 213.756 33.61 213.376 33.83C213.016 34.05 212.466 34.16 211.726 34.16H210.826L207.856 43.88C207.796 44.12 207.766 44.33 207.766 44.51C207.766 44.77 207.816 44.98 207.916 45.14C208.016 45.28 208.156 45.42 208.336 45.56C208.476 45.7 208.576 45.82 208.636 45.92C208.696 46 208.706 46.11 208.666 46.25C208.566 46.51 208.366 46.7 208.066 46.82C207.766 46.94 207.306 47 206.686 47H199.846C199.326 47 198.946 46.92 198.706 46.76C198.466 46.58 198.386 46.35 198.466 46.07C198.546 45.83 198.756 45.62 199.096 45.44C199.396 45.28 199.646 45.09 199.846 44.87C200.046 44.65 200.216 44.3 200.356 43.82L202.696 36.14C202.796 35.84 202.846 35.53 202.846 35.21C202.846 34.81 202.756 34.5 202.576 34.28C202.416 34.04 202.166 33.78 201.826 33.5C201.606 33.32 201.436 33.17 201.316 33.05C201.216 32.91 201.166 32.75 201.166 32.57C201.146 32.19 201.276 31.92 201.556 31.76C201.856 31.6 202.416 31.52 203.236 31.52H203.986C203.846 31.02 203.776 30.52 203.776 30.02C203.776 29.52 203.866 29 204.046 28.46C204.426 27.44 205.236 26.58 206.476 25.88C207.736 25.18 209.596 24.83 212.056 24.83ZM223.907 31.13C226.627 31.13 228.627 31.68 229.907 32.78C231.207 33.88 231.857 35.32 231.857 37.1C231.857 37.7 231.777 38.37 231.617 39.11C231.237 40.75 230.527 42.19 229.487 43.43C228.447 44.65 227.167 45.6 225.647 46.28C224.147 46.94 222.517 47.27 220.757 47.27C217.977 47.27 215.917 46.72 214.577 45.62C213.257 44.5 212.597 43.02 212.597 41.18C212.597 40.56 212.677 39.87 212.837 39.11C213.217 37.55 213.937 36.17 214.997 34.97C216.077 33.75 217.387 32.81 218.927 32.15C220.487 31.47 222.147 31.13 223.907 31.13ZM223.817 33.8C223.397 33.8 222.947 34.18 222.467 34.94C222.007 35.68 221.457 37.09 220.817 39.17C220.177 41.25 219.857 42.71 219.857 43.55C219.857 43.99 219.927 44.29 220.067 44.45C220.207 44.59 220.397 44.66 220.637 44.66C221.057 44.7 221.487 44.34 221.927 43.58C222.387 42.82 222.957 41.34 223.637 39.14C224.257 37.2 224.567 35.79 224.567 34.91C224.567 34.49 224.497 34.2 224.357 34.04C224.237 33.88 224.057 33.8 223.817 33.8ZM243.594 31.13C246.314 31.13 248.314 31.68 249.594 32.78C250.894 33.88 251.544 35.32 251.544 37.1C251.544 37.7 251.464 38.37 251.304 39.11C250.924 40.75 250.214 42.19 249.174 43.43C248.134 44.65 246.854 45.6 245.334 46.28C243.834 46.94 242.204 47.27 240.444 47.27C237.664 47.27 235.604 46.72 234.264 45.62C232.944 44.5 232.284 43.02 232.284 41.18C232.284 40.56 232.364 39.87 232.524 39.11C232.904 37.55 233.624 36.17 234.684 34.97C235.764 33.75 237.074 32.81 238.614 32.15C240.174 31.47 241.834 31.13 243.594 31.13ZM243.504 33.8C243.084 33.8 242.634 34.18 242.154 34.94C241.694 35.68 241.144 37.09 240.504 39.17C239.864 41.25 239.544 42.71 239.544 43.55C239.544 43.99 239.614 44.29 239.754 44.45C239.894 44.59 240.084 44.66 240.324 44.66C240.744 44.7 241.174 44.34 241.614 43.58C242.074 42.82 242.644 41.34 243.324 39.14C243.944 37.2 244.254 35.79 244.254 34.91C244.254 34.49 244.184 34.2 244.044 34.04C243.924 33.88 243.744 33.8 243.504 33.8ZM268.442 42.68C268.402 42.84 268.382 42.95 268.382 43.01C268.382 43.15 268.422 43.26 268.502 43.34C268.582 43.42 268.682 43.46 268.802 43.46C269.042 43.46 269.242 43.36 269.402 43.16C269.582 42.94 269.702 42.83 269.762 42.83C269.862 42.83 269.942 42.9 270.002 43.04C270.062 43.18 270.092 43.34 270.092 43.52C270.112 44.06 269.902 44.61 269.462 45.17C269.042 45.73 268.472 46.19 267.752 46.55C267.032 46.91 266.252 47.09 265.412 47.09C264.412 47.09 263.542 46.9 262.802 46.52C262.062 46.14 261.552 45.64 261.272 45.02C260.732 45.72 260.112 46.24 259.412 46.58C258.712 46.92 257.972 47.09 257.192 47.09C256.272 47.09 255.412 46.86 254.612 46.4C253.832 45.94 253.202 45.29 252.722 44.45C252.262 43.59 252.032 42.62 252.032 41.54C252.032 39.72 252.372 38.01 253.052 36.41C253.752 34.79 254.722 33.49 255.962 32.51C257.202 31.51 258.612 31.01 260.192 31.01C261.052 31.01 261.782 31.11 262.382 31.31C263.002 31.51 263.562 31.81 264.062 32.21L265.082 28.85C265.142 28.67 265.172 28.52 265.172 28.4C265.172 28.18 265.112 28 264.992 27.86C264.892 27.72 264.752 27.58 264.572 27.44C264.372 27.28 264.222 27.14 264.122 27.02C264.042 26.9 264.032 26.74 264.092 26.54C264.212 26.08 264.842 25.68 265.982 25.34C267.122 25 268.312 24.83 269.552 24.83C270.712 24.83 271.562 25.05 272.102 25.49C272.662 25.93 272.942 26.53 272.942 27.29C272.942 27.73 272.872 28.16 272.732 28.58L268.442 42.68ZM263.432 34.25C263.112 33.97 262.762 33.83 262.382 33.83C261.802 33.83 261.232 34.26 260.672 35.12C260.112 35.98 259.662 37.02 259.322 38.24C258.982 39.46 258.822 40.56 258.842 41.54C258.842 42.64 259.202 43.19 259.922 43.19C260.182 43.19 260.402 43.09 260.582 42.89C260.762 42.67 260.932 42.32 261.092 41.84L263.432 34.25Z" fill="#101010"/>
<path d="M37.3856 40.9283L36.5335 41.7417C36.1727 42.0861 35.5892 42.0861 35.2323 41.7417L27.7706 34.6229C27.4098 34.2785 27.4098 33.7215 27.7706 33.3808L35.2323 26.2583C35.5931 25.9139 36.1765 25.9139 36.5335 26.2583L37.3856 27.0717C37.7502 27.4197 37.7425 27.9876 37.3702 28.3284L32.7451 32.5345H43.7764C44.2869 32.5345 44.6976 32.9265 44.6976 33.4138V34.5862C44.6976 35.0735 44.2869 35.4655 43.7764 35.4655H32.7451L37.3702 39.6716C37.7464 40.0124 37.754 40.5803 37.3856 40.9283Z" fill="#353535"/>
</g>
<defs>
<filter id="filter0_d_25368_777" x="0.5" y="0" width="383" height="71" filterUnits="userSpaceOnUse" color-interpolation-filters="sRGB">
<feFlood flood-opacity="0" result="BackgroundImageFix"/>
<feColorMatrix in="SourceAlpha" type="matrix" values="0 0 0 0 0 0 0 0 0 0 0 0 0 0 0 0 0 0 127 0" result="hardAlpha"/>
<feOffset dy="2"/>
<feGaussianBlur stdDeviation="2"/>
<feColorMatrix type="matrix" values="0 0 0 0 0 0 0 0 0 0 0 0 0 0 0 0 0 0 0.15 0"/>
<feBlend mode="normal" in2="BackgroundImageFix" result="effect1_dropShadow_25368_777"/>
<feBlend mode="normal" in="SourceGraphic" in2="effect1_dropShadow_25368_777" result="shape"/>
</filter>
</defs>
</svg>
